<mxfile host="Electron" agent="Mozilla/5.0 (Windows NT 10.0; Win64; x64) AppleWebKit/537.36 (KHTML, like Gecko) draw.io/26.0.9 Chrome/128.0.6613.186 Electron/32.2.5 Safari/537.36" version="26.0.9" pages="3">
  <diagram name="Page-1" id="Zk2Mp6eZ05zJtqf8ytHI">
    <mxGraphModel dx="1434" dy="844" grid="1" gridSize="10" guides="1" tooltips="1" connect="1" arrows="1" fold="1" page="1" pageScale="1" pageWidth="850" pageHeight="1100" math="0" shadow="0">
      <root>
        <mxCell id="0" />
        <mxCell id="1" parent="0" />
        <mxCell id="AUS6rZ2O-rxv-LgGG_SK-1" value="" style="rounded=0;whiteSpace=wrap;html=1;" parent="1" vertex="1">
          <mxGeometry x="40" y="30" width="820" height="880" as="geometry" />
        </mxCell>
        <mxCell id="AUS6rZ2O-rxv-LgGG_SK-2" value="" style="rounded=0;whiteSpace=wrap;html=1;" parent="1" vertex="1">
          <mxGeometry x="40" y="40" width="820" height="70" as="geometry" />
        </mxCell>
        <mxCell id="AUS6rZ2O-rxv-LgGG_SK-6" value="" style="endArrow=none;html=1;rounded=0;exitX=0.667;exitY=0.998;exitDx=0;exitDy=0;entryX=0.664;entryY=1;entryDx=0;entryDy=0;entryPerimeter=0;exitPerimeter=0;" parent="1" edge="1">
          <mxGeometry width="50" height="50" relative="1" as="geometry">
            <mxPoint x="512.2800000000001" y="918.24" as="sourcePoint" />
            <mxPoint x="510.0000000000001" y="110" as="targetPoint" />
          </mxGeometry>
        </mxCell>
        <mxCell id="AUS6rZ2O-rxv-LgGG_SK-7" value="" style="rounded=0;whiteSpace=wrap;html=1;" parent="1" vertex="1">
          <mxGeometry x="40" y="120" width="460" height="300" as="geometry" />
        </mxCell>
        <mxCell id="AUS6rZ2O-rxv-LgGG_SK-11" value="" style="sketch=0;aspect=fixed;pointerEvents=1;shadow=0;dashed=0;html=1;strokeColor=none;labelPosition=center;verticalLabelPosition=bottom;verticalAlign=top;align=center;fillColor=#00188D;shape=mxgraph.mscae.general.graph" parent="1" vertex="1">
          <mxGeometry x="155" y="150" width="270" height="270" as="geometry" />
        </mxCell>
        <mxCell id="AUS6rZ2O-rxv-LgGG_SK-47" value="STOCK" style="rounded=0;whiteSpace=wrap;html=1;" parent="1" vertex="1">
          <mxGeometry x="510" y="180" width="120" height="60" as="geometry" />
        </mxCell>
        <mxCell id="AUS6rZ2O-rxv-LgGG_SK-48" value="Cash" style="rounded=0;whiteSpace=wrap;html=1;" parent="1" vertex="1">
          <mxGeometry x="510" y="240" width="120" height="60" as="geometry" />
        </mxCell>
        <mxCell id="AUS6rZ2O-rxv-LgGG_SK-49" value="Value" style="rounded=0;whiteSpace=wrap;html=1;" parent="1" vertex="1">
          <mxGeometry x="630" y="180" width="120" height="60" as="geometry" />
        </mxCell>
        <mxCell id="AUS6rZ2O-rxv-LgGG_SK-50" value="Value" style="rounded=0;whiteSpace=wrap;html=1;" parent="1" vertex="1">
          <mxGeometry x="630" y="240" width="120" height="60" as="geometry" />
        </mxCell>
        <mxCell id="AUS6rZ2O-rxv-LgGG_SK-51" value="Quantity" style="rounded=0;whiteSpace=wrap;html=1;" parent="1" vertex="1">
          <mxGeometry x="750" y="180" width="100" height="60" as="geometry" />
        </mxCell>
        <mxCell id="AUS6rZ2O-rxv-LgGG_SK-52" style="edgeStyle=orthogonalEdgeStyle;rounded=0;orthogonalLoop=1;jettySize=auto;html=1;exitX=0.25;exitY=1;exitDx=0;exitDy=0;entryX=0;entryY=1;entryDx=0;entryDy=0;" parent="1" source="AUS6rZ2O-rxv-LgGG_SK-50" target="AUS6rZ2O-rxv-LgGG_SK-50" edge="1">
          <mxGeometry relative="1" as="geometry" />
        </mxCell>
        <mxCell id="AUS6rZ2O-rxv-LgGG_SK-53" value="Quantity" style="rounded=0;whiteSpace=wrap;html=1;" parent="1" vertex="1">
          <mxGeometry x="750" y="240" width="100" height="60" as="geometry" />
        </mxCell>
        <mxCell id="AUS6rZ2O-rxv-LgGG_SK-65" value="Sell" style="labelPosition=center;verticalLabelPosition=middle;align=center;html=1;shape=mxgraph.basic.shaded_button;dx=10;fillColor=#E6E6E6;strokeColor=none;whiteSpace=wrap;" parent="1" vertex="1">
          <mxGeometry x="630" y="390" width="120" height="40" as="geometry" />
        </mxCell>
        <mxCell id="AUS6rZ2O-rxv-LgGG_SK-67" value="Buy" style="labelPosition=center;verticalLabelPosition=middle;align=center;html=1;shape=mxgraph.basic.shaded_button;dx=10;fillColor=#E6E6E6;strokeColor=none;whiteSpace=wrap;" parent="1" vertex="1">
          <mxGeometry x="630" y="350" width="120" height="40" as="geometry" />
        </mxCell>
        <mxCell id="AUS6rZ2O-rxv-LgGG_SK-68" value="You have &amp;lt;Number&amp;gt; at &amp;lt;Value&amp;gt; per share." style="text;html=1;align=center;verticalAlign=middle;whiteSpace=wrap;rounded=0;" parent="1" vertex="1">
          <mxGeometry x="540" y="310" width="300" height="30" as="geometry" />
        </mxCell>
        <mxCell id="AUS6rZ2O-rxv-LgGG_SK-70" value="&lt;table cellpadding=&quot;0&quot; cellspacing=&quot;0&quot; style=&quot;width:100%;height:100%;&quot;&gt;&lt;tr&gt;&lt;td style=&quot;width:85%&quot;&gt;100&lt;/td&gt;&lt;td style=&quot;width:15%&quot;&gt;&lt;/td&gt;&lt;/tr&gt;&lt;/table&gt;" style="strokeWidth=1;shadow=0;dashed=0;align=center;html=1;shape=mxgraph.mockup.forms.spinner;strokeColor=#999999;spinLayout=right;spinStyle=normal;adjStyle=triangle;fillColor=#aaddff;fontSize=17;fontColor=#666666;mainText=;html=1;overflow=fill;" parent="1" vertex="1">
          <mxGeometry x="520" y="355" width="110" height="30" as="geometry" />
        </mxCell>
        <mxCell id="AUS6rZ2O-rxv-LgGG_SK-72" value="" style="rounded=0;whiteSpace=wrap;html=1;" parent="1" vertex="1">
          <mxGeometry x="740" y="45" width="120" height="60" as="geometry" />
        </mxCell>
        <mxCell id="AUS6rZ2O-rxv-LgGG_SK-73" value="Login/logout&lt;div&gt;&lt;br&gt;&lt;/div&gt;" style="text;html=1;align=center;verticalAlign=middle;whiteSpace=wrap;rounded=0;" parent="1" vertex="1">
          <mxGeometry x="800" y="95" width="60" height="15" as="geometry" />
        </mxCell>
        <mxCell id="AUS6rZ2O-rxv-LgGG_SK-75" value="USERNAME" style="text;html=1;align=center;verticalAlign=middle;whiteSpace=wrap;rounded=0;" parent="1" vertex="1">
          <mxGeometry x="740" y="45" width="120" height="40" as="geometry" />
        </mxCell>
        <mxCell id="AUS6rZ2O-rxv-LgGG_SK-76" value="STOCKTRADER" style="text;html=1;align=center;verticalAlign=middle;whiteSpace=wrap;rounded=0;" parent="1" vertex="1">
          <mxGeometry x="145" y="40" width="290" height="70" as="geometry" />
        </mxCell>
        <mxCell id="AUS6rZ2O-rxv-LgGG_SK-78" value="You have &amp;lt;Cash&amp;gt;" style="text;html=1;align=center;verticalAlign=middle;whiteSpace=wrap;rounded=0;" parent="1" vertex="1">
          <mxGeometry x="465" y="45" width="275" height="30" as="geometry" />
        </mxCell>
        <mxCell id="AUS6rZ2O-rxv-LgGG_SK-80" value="Deposit" style="labelPosition=center;verticalLabelPosition=middle;align=center;html=1;shape=mxgraph.basic.shaded_button;dx=10;fillColor=#E6E6E6;strokeColor=none;whiteSpace=wrap;" parent="1" vertex="1">
          <mxGeometry x="497.5" y="75" width="242.5" height="35" as="geometry" />
        </mxCell>
      </root>
    </mxGraphModel>
  </diagram>
  <diagram id="WvRsOl-Y1OWpnD-D2MX6" name="Account View">
    <mxGraphModel dx="1434" dy="844" grid="1" gridSize="10" guides="1" tooltips="1" connect="1" arrows="1" fold="1" page="1" pageScale="1" pageWidth="850" pageHeight="1100" math="0" shadow="0">
      <root>
        <mxCell id="0" />
        <mxCell id="1" parent="0" />
        <mxCell id="23TGsnoaJCarrGwFyqyh-1" value="" style="rounded=0;whiteSpace=wrap;html=1;" vertex="1" parent="1">
          <mxGeometry x="50" y="40" width="820" height="880" as="geometry" />
        </mxCell>
        <mxCell id="23TGsnoaJCarrGwFyqyh-2" value="" style="rounded=0;whiteSpace=wrap;html=1;" vertex="1" parent="1">
          <mxGeometry x="50" y="50" width="820" height="70" as="geometry" />
        </mxCell>
        <mxCell id="23TGsnoaJCarrGwFyqyh-17" value="" style="rounded=0;whiteSpace=wrap;html=1;" vertex="1" parent="1">
          <mxGeometry x="750" y="55" width="120" height="60" as="geometry" />
        </mxCell>
        <mxCell id="23TGsnoaJCarrGwFyqyh-18" value="Login/logout&lt;div&gt;&lt;br&gt;&lt;/div&gt;" style="text;html=1;align=center;verticalAlign=middle;whiteSpace=wrap;rounded=0;" vertex="1" parent="1">
          <mxGeometry x="810" y="105" width="60" height="15" as="geometry" />
        </mxCell>
        <mxCell id="23TGsnoaJCarrGwFyqyh-19" value="USERNAME" style="text;html=1;align=center;verticalAlign=middle;whiteSpace=wrap;rounded=0;" vertex="1" parent="1">
          <mxGeometry x="750" y="55" width="120" height="40" as="geometry" />
        </mxCell>
        <mxCell id="23TGsnoaJCarrGwFyqyh-20" value="STOCKTRADER" style="text;html=1;align=center;verticalAlign=middle;whiteSpace=wrap;rounded=0;" vertex="1" parent="1">
          <mxGeometry x="155" y="50" width="290" height="70" as="geometry" />
        </mxCell>
        <mxCell id="23TGsnoaJCarrGwFyqyh-21" value="You have &amp;lt;Cash&amp;gt;" style="text;html=1;align=center;verticalAlign=middle;whiteSpace=wrap;rounded=0;" vertex="1" parent="1">
          <mxGeometry x="475" y="55" width="275" height="30" as="geometry" />
        </mxCell>
        <mxCell id="23TGsnoaJCarrGwFyqyh-22" value="Deposit" style="labelPosition=center;verticalLabelPosition=middle;align=center;html=1;shape=mxgraph.basic.shaded_button;dx=10;fillColor=#E6E6E6;strokeColor=none;whiteSpace=wrap;" vertex="1" parent="1">
          <mxGeometry x="507.5" y="85" width="242.5" height="35" as="geometry" />
        </mxCell>
        <mxCell id="23TGsnoaJCarrGwFyqyh-23" value="Welcome &amp;lt;user&amp;gt;&lt;br&gt;You have: &amp;lt;balance&amp;gt;" style="rounded=0;whiteSpace=wrap;html=1;" vertex="1" parent="1">
          <mxGeometry x="400" y="210" width="120" height="60" as="geometry" />
        </mxCell>
        <mxCell id="23TGsnoaJCarrGwFyqyh-24" value="" style="rounded=0;whiteSpace=wrap;html=1;" vertex="1" parent="1">
          <mxGeometry x="270" y="350" width="400" height="380" as="geometry" />
        </mxCell>
        <mxCell id="23TGsnoaJCarrGwFyqyh-25" value="&lt;div&gt;&lt;br&gt;&lt;/div&gt;Transaction History&lt;div&gt;&lt;br&gt;&lt;/div&gt;" style="text;html=1;align=center;verticalAlign=middle;whiteSpace=wrap;rounded=0;" vertex="1" parent="1">
          <mxGeometry x="350" y="310" width="220" height="30" as="geometry" />
        </mxCell>
        <mxCell id="23TGsnoaJCarrGwFyqyh-26" value="&lt;h1 style=&quot;margin-top: 0px;&quot;&gt;&lt;span style=&quot;background-color: transparent; color: light-dark(rgb(0, 0, 0), rgb(255, 255, 255)); font-size: 12px; font-weight: normal;&quot;&gt;Lorem ipsum dolor sit amet, consectetur adipisicing elit, sed do eiusmod tempor incididunt ut labore et dolore magna aliqua.&lt;/span&gt;&lt;br&gt;&lt;/h1&gt;" style="text;html=1;whiteSpace=wrap;overflow=hidden;rounded=0;" vertex="1" parent="1">
          <mxGeometry x="270" y="360" width="400" height="90" as="geometry" />
        </mxCell>
        <mxCell id="23TGsnoaJCarrGwFyqyh-28" value="&lt;h1 style=&quot;margin-top: 0px;&quot;&gt;&lt;span style=&quot;background-color: transparent; color: light-dark(rgb(0, 0, 0), rgb(255, 255, 255)); font-size: 12px; font-weight: normal;&quot;&gt;Lorem ipsum dolor sit amet, consectetur adipisicing elit, sed do eiusmod tempor incididunt ut labore et dolore magna aliqua.&lt;/span&gt;&lt;br&gt;&lt;/h1&gt;" style="text;html=1;whiteSpace=wrap;overflow=hidden;rounded=0;" vertex="1" parent="1">
          <mxGeometry x="270" y="450" width="400" height="90" as="geometry" />
        </mxCell>
        <mxCell id="23TGsnoaJCarrGwFyqyh-29" value="&lt;h1 style=&quot;margin-top: 0px;&quot;&gt;&lt;span style=&quot;background-color: transparent; color: light-dark(rgb(0, 0, 0), rgb(255, 255, 255)); font-size: 12px; font-weight: normal;&quot;&gt;Lorem ipsum dolor sit amet, consectetur adipisicing elit, sed do eiusmod tempor incididunt ut labore et dolore magna aliqua.&lt;/span&gt;&lt;br&gt;&lt;/h1&gt;" style="text;html=1;whiteSpace=wrap;overflow=hidden;rounded=0;" vertex="1" parent="1">
          <mxGeometry x="270" y="510" width="400" height="90" as="geometry" />
        </mxCell>
      </root>
    </mxGraphModel>
  </diagram>
  <diagram id="emQSVv5WWfLMIJHONPhx" name="Deposit">
    <mxGraphModel dx="1434" dy="844" grid="1" gridSize="10" guides="1" tooltips="1" connect="1" arrows="1" fold="1" page="1" pageScale="1" pageWidth="850" pageHeight="1100" math="0" shadow="0">
      <root>
        <mxCell id="0" />
        <mxCell id="1" parent="0" />
        <mxCell id="TwsV55GT4b7biEzSu9C_-1" value="" style="rounded=0;whiteSpace=wrap;html=1;" vertex="1" parent="1">
          <mxGeometry x="40" y="30" width="820" height="880" as="geometry" />
        </mxCell>
        <mxCell id="TwsV55GT4b7biEzSu9C_-2" value="" style="rounded=0;whiteSpace=wrap;html=1;" vertex="1" parent="1">
          <mxGeometry x="40" y="40" width="820" height="70" as="geometry" />
        </mxCell>
        <mxCell id="TwsV55GT4b7biEzSu9C_-17" value="" style="rounded=0;whiteSpace=wrap;html=1;" vertex="1" parent="1">
          <mxGeometry x="740" y="45" width="120" height="60" as="geometry" />
        </mxCell>
        <mxCell id="TwsV55GT4b7biEzSu9C_-18" value="Login/logout&lt;div&gt;&lt;br&gt;&lt;/div&gt;" style="text;html=1;align=center;verticalAlign=middle;whiteSpace=wrap;rounded=0;" vertex="1" parent="1">
          <mxGeometry x="800" y="95" width="60" height="15" as="geometry" />
        </mxCell>
        <mxCell id="TwsV55GT4b7biEzSu9C_-19" value="USERNAME" style="text;html=1;align=center;verticalAlign=middle;whiteSpace=wrap;rounded=0;" vertex="1" parent="1">
          <mxGeometry x="740" y="45" width="120" height="40" as="geometry" />
        </mxCell>
        <mxCell id="TwsV55GT4b7biEzSu9C_-20" value="STOCKTRADER" style="text;html=1;align=center;verticalAlign=middle;whiteSpace=wrap;rounded=0;" vertex="1" parent="1">
          <mxGeometry x="145" y="40" width="290" height="70" as="geometry" />
        </mxCell>
        <mxCell id="TwsV55GT4b7biEzSu9C_-21" value="You have &amp;lt;Cash&amp;gt;" style="text;html=1;align=center;verticalAlign=middle;whiteSpace=wrap;rounded=0;" vertex="1" parent="1">
          <mxGeometry x="465" y="45" width="275" height="30" as="geometry" />
        </mxCell>
        <mxCell id="TwsV55GT4b7biEzSu9C_-22" value="Deposit" style="labelPosition=center;verticalLabelPosition=middle;align=center;html=1;shape=mxgraph.basic.shaded_button;dx=10;fillColor=#E6E6E6;strokeColor=none;whiteSpace=wrap;" vertex="1" parent="1">
          <mxGeometry x="497.5" y="75" width="242.5" height="35" as="geometry" />
        </mxCell>
        <mxCell id="TwsV55GT4b7biEzSu9C_-23" value="" style="rounded=0;whiteSpace=wrap;html=1;" vertex="1" parent="1">
          <mxGeometry x="310" y="230" width="280" height="170" as="geometry" />
        </mxCell>
        <mxCell id="TwsV55GT4b7biEzSu9C_-24" value="TBA: TRANSACTION INFO REQUIREMENTS&lt;div&gt;&lt;br&gt;&lt;/div&gt;" style="text;html=1;align=center;verticalAlign=middle;whiteSpace=wrap;rounded=0;" vertex="1" parent="1">
          <mxGeometry x="285" y="240" width="330" height="30" as="geometry" />
        </mxCell>
        <mxCell id="TwsV55GT4b7biEzSu9C_-25" value="Ammount to deposit:" style="text;html=1;align=center;verticalAlign=middle;whiteSpace=wrap;rounded=0;" vertex="1" parent="1">
          <mxGeometry x="315" y="360" width="150" height="30" as="geometry" />
        </mxCell>
        <mxCell id="TwsV55GT4b7biEzSu9C_-26" value="" style="rounded=1;whiteSpace=wrap;html=1;" vertex="1" parent="1">
          <mxGeometry x="460" y="365" width="125" height="20" as="geometry" />
        </mxCell>
      </root>
    </mxGraphModel>
  </diagram>
</mxfile>
